<svg width="231" height="18" viewBox="0 0 231 18" fill="none" xmlns="http://www.w3.org/2000/svg">
<rect width="50" height="18" rx="8" fill="#12F7D6"/>
<path d="M14.104 9.562H10.296V14H9.12V4.228H10.296V8.54H14.104V4.228H15.28V14H14.104V9.562ZM21.1825 5.25V14H20.0065V5.25H16.7445V4.228H24.4445V5.25H21.1825ZM31.1591 9.1V6.006H31.0471L28.9891 11.032L26.9311 6.006H26.8191V9.1V14H25.7411V4.228H27.2531L28.9751 8.54H29.0591L30.7811 4.228H32.2371V14H31.1591V9.1ZM34.8636 14V4.228H36.0396V12.978H40.6736V14H34.8636Z" fill="#292F36"/>
<rect x="66" width="42" height="18" rx="8" fill="#12F7D6"/>
<path d="M78.522 14.168C77.3273 14.168 76.436 13.734 75.848 12.866C75.2693 11.998 74.98 10.7473 74.98 9.114C74.98 7.48067 75.2693 6.23 75.848 5.362C76.436 4.494 77.3273 4.06 78.522 4.06C78.97 4.06 79.3573 4.12067 79.684 4.242C80.0107 4.36333 80.2907 4.52667 80.524 4.732C80.7573 4.93733 80.9533 5.17067 81.112 5.432C81.2707 5.684 81.4107 5.94067 81.532 6.202L80.524 6.664C80.44 6.44933 80.342 6.24867 80.23 6.062C80.118 5.866 79.9827 5.698 79.824 5.558C79.6747 5.40867 79.4927 5.292 79.278 5.208C79.0727 5.124 78.8207 5.082 78.522 5.082C77.7473 5.082 77.1687 5.376 76.786 5.964C76.4127 6.552 76.226 7.336 76.226 8.316V9.912C76.226 10.892 76.4127 11.676 76.786 12.264C77.1687 12.852 77.7473 13.146 78.522 13.146C78.8207 13.146 79.0727 13.104 79.278 13.02C79.4927 12.936 79.6747 12.824 79.824 12.684C79.9827 12.5347 80.118 12.3667 80.23 12.18C80.342 11.984 80.44 11.7787 80.524 11.564L81.532 12.026C81.4107 12.2967 81.2707 12.558 81.112 12.81C80.9533 13.062 80.7573 13.2907 80.524 13.496C80.2907 13.7013 80.0107 13.8647 79.684 13.986C79.3573 14.1073 78.97 14.168 78.522 14.168ZM86.5665 14.168C85.6892 14.168 84.9705 14.0093 84.4105 13.692C83.8505 13.3653 83.3885 12.95 83.0245 12.446L83.8785 11.746C84.2612 12.222 84.6625 12.5767 85.0825 12.81C85.5119 13.0433 86.0205 13.16 86.6085 13.16C87.3179 13.16 87.8592 12.9967 88.2325 12.67C88.6059 12.3433 88.7925 11.886 88.7925 11.298C88.7925 10.822 88.6572 10.4533 88.3865 10.192C88.1159 9.92133 87.6445 9.73 86.9725 9.618L85.8805 9.436C85.4045 9.352 85.0032 9.226 84.6765 9.058C84.3592 8.89 84.1025 8.68933 83.9065 8.456C83.7105 8.21333 83.5705 7.952 83.4865 7.672C83.4025 7.38267 83.3605 7.084 83.3605 6.776C83.3605 5.88 83.6545 5.20333 84.2425 4.746C84.8305 4.28867 85.6239 4.06 86.6225 4.06C87.4065 4.06 88.0645 4.19067 88.5965 4.452C89.1379 4.71333 89.5719 5.082 89.8985 5.558L89.0725 6.272C88.8019 5.91733 88.4752 5.628 88.0925 5.404C87.7099 5.18 87.2152 5.068 86.6085 5.068C85.9459 5.068 85.4372 5.208 85.0825 5.488C84.7279 5.768 84.5505 6.188 84.5505 6.748C84.5505 7.18667 84.6812 7.546 84.9425 7.826C85.2132 8.09667 85.6939 8.29267 86.3845 8.414L87.4345 8.596C87.9105 8.68 88.3119 8.806 88.6385 8.974C88.9652 9.142 89.2265 9.34267 89.4225 9.576C89.6279 9.80933 89.7725 10.0707 89.8565 10.36C89.9405 10.6493 89.9825 10.9527 89.9825 11.27C89.9825 12.1753 89.6839 12.8847 89.0865 13.398C88.4985 13.9113 87.6585 14.168 86.5665 14.168ZM94.9611 14.168C94.0837 14.168 93.3651 14.0093 92.8051 13.692C92.2451 13.3653 91.7831 12.95 91.4191 12.446L92.2731 11.746C92.6557 12.222 93.0571 12.5767 93.4771 12.81C93.9064 13.0433 94.4151 13.16 95.0031 13.16C95.7124 13.16 96.2537 12.9967 96.6271 12.67C97.0004 12.3433 97.1871 11.886 97.1871 11.298C97.1871 10.822 97.0517 10.4533 96.7811 10.192C96.5104 9.92133 96.0391 9.73 95.3671 9.618L94.2751 9.436C93.7991 9.352 93.3977 9.226 93.0711 9.058C92.7537 8.89 92.4971 8.68933 92.3011 8.456C92.1051 8.21333 91.9651 7.952 91.8811 7.672C91.7971 7.38267 91.7551 7.084 91.7551 6.776C91.7551 5.88 92.0491 5.20333 92.6371 4.746C93.2251 4.28867 94.0184 4.06 95.0171 4.06C95.8011 4.06 96.4591 4.19067 96.9911 4.452C97.5324 4.71333 97.9664 5.082 98.2931 5.558L97.4671 6.272C97.1964 5.91733 96.8697 5.628 96.4871 5.404C96.1044 5.18 95.6097 5.068 95.0031 5.068C94.3404 5.068 93.8317 5.208 93.4771 5.488C93.1224 5.768 92.9451 6.188 92.9451 6.748C92.9451 7.18667 93.0757 7.546 93.3371 7.826C93.6077 8.09667 94.0884 8.29267 94.7791 8.414L95.8291 8.596C96.3051 8.68 96.7064 8.806 97.0331 8.974C97.3597 9.142 97.6211 9.34267 97.8171 9.576C98.0224 9.80933 98.1671 10.0707 98.2511 10.36C98.3351 10.6493 98.3771 10.9527 98.3771 11.27C98.3771 12.1753 98.0784 12.8847 97.4811 13.398C96.8931 13.9113 96.0531 14.168 94.9611 14.168Z" fill="#292F36"/>
<rect x="124" width="33" height="18" rx="8" fill="#12F7D6"/>
<path d="M138.72 4.228V11.466C138.72 11.8767 138.65 12.25 138.51 12.586C138.37 12.922 138.169 13.2067 137.908 13.44C137.656 13.6733 137.353 13.8553 136.998 13.986C136.643 14.1073 136.256 14.168 135.836 14.168C135.089 14.168 134.473 13.9767 133.988 13.594C133.503 13.202 133.185 12.656 133.036 11.956L134.156 11.718C134.203 11.914 134.263 12.1007 134.338 12.278C134.422 12.446 134.529 12.5953 134.66 12.726C134.8 12.8473 134.968 12.9453 135.164 13.02C135.36 13.0947 135.593 13.132 135.864 13.132C136.396 13.132 136.807 12.9827 137.096 12.684C137.395 12.376 137.544 11.9 137.544 11.256V5.25H134.016V4.228H138.72ZM144.567 14.168C143.689 14.168 142.971 14.0093 142.411 13.692C141.851 13.3653 141.389 12.95 141.025 12.446L141.879 11.746C142.261 12.222 142.663 12.5767 143.083 12.81C143.512 13.0433 144.021 13.16 144.609 13.16C145.318 13.16 145.859 12.9967 146.233 12.67C146.606 12.3433 146.793 11.886 146.793 11.298C146.793 10.822 146.657 10.4533 146.387 10.192C146.116 9.92133 145.645 9.73 144.973 9.618L143.881 9.436C143.405 9.352 143.003 9.226 142.677 9.058C142.359 8.89 142.103 8.68933 141.907 8.456C141.711 8.21333 141.571 7.952 141.487 7.672C141.403 7.38267 141.361 7.084 141.361 6.776C141.361 5.88 141.655 5.20333 142.243 4.746C142.831 4.28867 143.624 4.06 144.623 4.06C145.407 4.06 146.065 4.19067 146.597 4.452C147.138 4.71333 147.572 5.082 147.899 5.558L147.073 6.272C146.802 5.91733 146.475 5.628 146.093 5.404C145.71 5.18 145.215 5.068 144.609 5.068C143.946 5.068 143.437 5.208 143.083 5.488C142.728 5.768 142.551 6.188 142.551 6.748C142.551 7.18667 142.681 7.546 142.943 7.826C143.213 8.09667 143.694 8.29267 144.385 8.414L145.435 8.596C145.911 8.68 146.312 8.806 146.639 8.974C146.965 9.142 147.227 9.34267 147.423 9.576C147.628 9.80933 147.773 10.0707 147.857 10.36C147.941 10.6493 147.983 10.9527 147.983 11.27C147.983 12.1753 147.684 12.8847 147.087 13.398C146.499 13.9113 145.659 14.168 144.567 14.168Z" fill="#292F36"/>
<rect x="173" width="58" height="18" rx="8" fill="#12F7D6"/>
<path d="M183.436 14H182.26V4.228H185.816C186.721 4.228 187.412 4.47533 187.888 4.97C188.364 5.46467 188.602 6.15533 188.602 7.042C188.602 7.83533 188.397 8.47 187.986 8.946C187.575 9.422 186.978 9.69733 186.194 9.772L188.686 14H187.37L184.99 9.828H183.436V14ZM185.788 8.834C186.283 8.834 186.665 8.71267 186.936 8.47C187.216 8.218 187.356 7.86333 187.356 7.406V6.678C187.356 6.22067 187.216 5.87067 186.936 5.628C186.665 5.376 186.283 5.25 185.788 5.25H183.436V8.834H185.788ZM190.655 14V4.228H196.675V5.25H191.831V8.54H196.507V9.562H191.831V12.978H196.675V14H190.655ZM204.523 14L203.697 11.214H200.267L199.441 14H198.223L201.219 4.228H202.773L205.769 14H204.523ZM202.045 5.474H201.919L200.547 10.192H203.417L202.045 5.474ZM210.706 14.168C209.511 14.168 208.62 13.734 208.032 12.866C207.453 11.998 207.164 10.7473 207.164 9.114C207.164 7.48067 207.453 6.23 208.032 5.362C208.62 4.494 209.511 4.06 210.706 4.06C211.154 4.06 211.541 4.12067 211.868 4.242C212.194 4.36333 212.474 4.52667 212.708 4.732C212.941 4.93733 213.137 5.17067 213.296 5.432C213.454 5.684 213.594 5.94067 213.716 6.202L212.708 6.664C212.624 6.44933 212.526 6.24867 212.414 6.062C212.302 5.866 212.166 5.698 212.008 5.558C211.858 5.40867 211.676 5.292 211.462 5.208C211.256 5.124 211.004 5.082 210.706 5.082C209.931 5.082 209.352 5.376 208.97 5.964C208.596 6.552 208.41 7.336 208.41 8.316V9.912C208.41 10.892 208.596 11.676 208.97 12.264C209.352 12.852 209.931 13.146 210.706 13.146C211.004 13.146 211.256 13.104 211.462 13.02C211.676 12.936 211.858 12.824 212.008 12.684C212.166 12.5347 212.302 12.3667 212.414 12.18C212.526 11.984 212.624 11.7787 212.708 11.564L213.716 12.026C213.594 12.2967 213.454 12.558 213.296 12.81C213.137 13.062 212.941 13.2907 212.708 13.496C212.474 13.7013 212.194 13.8647 211.868 13.986C211.541 14.1073 211.154 14.168 210.706 14.168ZM219.366 5.25V14H218.19V5.25H214.928V4.228H222.628V5.25H219.366Z" fill="#292F36"/>
</svg>
