<svg width="296" height="132" viewBox="0 0 296 132" fill="none" xmlns="http://www.w3.org/2000/svg">
<path d="M0 8C0 3.58172 3.58172 0 8 0V0V132V132C3.58172 132 0 128.418 0 124V8Z" fill="#0C73B8"/>
<path d="M8 0H288C292.418 0 296 3.58172 296 8V124C296 128.418 292.418 132 288 132H8V0Z" fill="#98FAEC"/>
<g clip-path="url(#clip0_536_773)">
<path fill-rule="evenodd" clip-rule="evenodd" d="M153.333 40H162.667C164.876 40 166.667 38.2092 166.667 36V22.6667C166.667 20.4575 164.876 18.6667 162.667 18.6667H141.333C139.124 18.6667 137.333 20.4575 137.333 22.6667V36C137.333 38.2092 139.124 40 141.333 40H150.667V42.6667H146.667C145.93 42.6667 145.333 43.2636 145.333 44C145.333 44.7364 145.93 45.3334 146.667 45.3334H157.333C158.07 45.3334 158.667 44.7364 158.667 44C158.667 43.2636 158.07 42.6667 157.333 42.6667H153.333V40ZM141.333 21.3334C140.597 21.3334 140 21.9303 140 22.6667V36C140 36.7364 140.597 37.3334 141.333 37.3334H162.667C163.403 37.3334 164 36.7364 164 36V22.6667C164 21.9303 163.403 21.3334 162.667 21.3334H141.333Z" fill="#292F36"/>
</g>
<path d="M39.035 81L37.715 64.248H39.515L40.211 73.848L40.571 78.912H40.763L42.971 68.616H45.227L47.435 78.912H47.627L47.987 73.848L48.683 64.248H50.435L49.115 81H46.211L44.171 70.992H43.979L41.939 81H39.035ZM58.6816 81.288C57.7856 81.288 56.9776 81.136 56.2576 80.832C55.5536 80.528 54.9456 80.096 54.4336 79.536C53.9376 78.96 53.5536 78.28 53.2816 77.496C53.0096 76.696 52.8736 75.808 52.8736 74.832C52.8736 73.84 53.0096 72.944 53.2816 72.144C53.5696 71.344 53.9616 70.664 54.4576 70.104C54.9536 69.528 55.5456 69.088 56.2336 68.784C56.9376 68.48 57.7136 68.328 58.5616 68.328C59.3936 68.328 60.1456 68.48 60.8176 68.784C61.5056 69.088 62.0896 69.512 62.5696 70.056C63.0496 70.584 63.4176 71.216 63.6736 71.952C63.9296 72.688 64.0576 73.496 64.0576 74.376V75.288H54.8896V75.864C54.8896 76.408 54.9776 76.912 55.1536 77.376C55.3296 77.84 55.5776 78.24 55.8976 78.576C56.2336 78.912 56.6336 79.176 57.0976 79.368C57.5776 79.544 58.1056 79.632 58.6816 79.632C59.5136 79.632 60.2336 79.44 60.8416 79.056C61.4496 78.672 61.9136 78.144 62.2336 77.472L63.6496 78.432C63.2816 79.264 62.6656 79.952 61.8016 80.496C60.9536 81.024 59.9136 81.288 58.6816 81.288ZM58.5616 69.912C58.0336 69.912 57.5456 70.008 57.0976 70.2C56.6496 70.392 56.2576 70.656 55.9216 70.992C55.6016 71.328 55.3456 71.728 55.1536 72.192C54.9776 72.64 54.8896 73.136 54.8896 73.68V73.848H61.9936V73.584C61.9936 73.04 61.9056 72.544 61.7296 72.096C61.5696 71.648 61.3376 71.264 61.0336 70.944C60.7456 70.608 60.3856 70.352 59.9536 70.176C59.5376 70 59.0736 69.912 58.5616 69.912ZM67.9363 63.24H69.8563V70.632H69.9523C70.7523 69.096 72.0243 68.328 73.7683 68.328C75.2883 68.328 76.4723 68.896 77.3203 70.032C78.1843 71.168 78.6163 72.76 78.6163 74.808C78.6163 76.856 78.1843 78.448 77.3203 79.584C76.4723 80.72 75.2883 81.288 73.7683 81.288C72.0243 81.288 70.7523 80.52 69.9523 78.984H69.8563V81H67.9363V63.24ZM73.0243 79.584C74.1443 79.584 75.0083 79.248 75.6163 78.576C76.2403 77.888 76.5523 76.984 76.5523 75.864V73.752C76.5523 72.632 76.2403 71.736 75.6163 71.064C75.0083 70.376 74.1443 70.032 73.0243 70.032C72.5923 70.032 72.1843 70.088 71.8003 70.2C71.4163 70.312 71.0803 70.48 70.7923 70.704C70.5043 70.912 70.2723 71.176 70.0963 71.496C69.9363 71.8 69.8563 72.16 69.8563 72.576V77.04C69.8563 77.456 69.9363 77.824 70.0963 78.144C70.2723 78.448 70.5043 78.712 70.7923 78.936C71.0803 79.144 71.4163 79.304 71.8003 79.416C72.1843 79.528 72.5923 79.584 73.0243 79.584ZM96.7175 64.248H101.398C103.446 64.248 104.974 64.952 105.982 66.36C106.99 67.768 107.494 69.856 107.494 72.624C107.494 75.392 106.99 77.48 105.982 78.888C104.974 80.296 103.446 81 101.398 81H96.7175V64.248ZM101.302 79.248C102.646 79.248 103.654 78.784 104.326 77.856C105.014 76.928 105.358 75.616 105.358 73.92V71.328C105.358 69.632 105.014 68.32 104.326 67.392C103.654 66.464 102.646 66 101.302 66H98.7335V79.248H101.302ZM116.244 81.288C115.348 81.288 114.54 81.136 113.82 80.832C113.116 80.528 112.508 80.096 111.996 79.536C111.5 78.96 111.116 78.28 110.844 77.496C110.572 76.696 110.436 75.808 110.436 74.832C110.436 73.84 110.572 72.944 110.844 72.144C111.132 71.344 111.524 70.664 112.02 70.104C112.516 69.528 113.108 69.088 113.796 68.784C114.5 68.48 115.276 68.328 116.124 68.328C116.956 68.328 117.708 68.48 118.38 68.784C119.068 69.088 119.652 69.512 120.132 70.056C120.612 70.584 120.98 71.216 121.236 71.952C121.492 72.688 121.62 73.496 121.62 74.376V75.288H112.452V75.864C112.452 76.408 112.54 76.912 112.716 77.376C112.892 77.84 113.14 78.24 113.46 78.576C113.796 78.912 114.196 79.176 114.66 79.368C115.14 79.544 115.668 79.632 116.244 79.632C117.076 79.632 117.796 79.44 118.404 79.056C119.012 78.672 119.476 78.144 119.796 77.472L121.212 78.432C120.844 79.264 120.228 79.952 119.364 80.496C118.516 81.024 117.476 81.288 116.244 81.288ZM116.124 69.912C115.596 69.912 115.108 70.008 114.66 70.2C114.212 70.392 113.82 70.656 113.484 70.992C113.164 71.328 112.908 71.728 112.716 72.192C112.54 72.64 112.452 73.136 112.452 73.68V73.848H119.556V73.584C119.556 73.04 119.468 72.544 119.292 72.096C119.132 71.648 118.9 71.264 118.596 70.944C118.308 70.608 117.948 70.352 117.516 70.176C117.1 70 116.636 69.912 116.124 69.912ZM129.195 81L124.755 68.616H126.699L128.475 73.8L130.395 79.392H130.491L132.411 73.8L134.187 68.616H136.083L131.643 81H129.195ZM145.025 81.288C144.129 81.288 143.321 81.136 142.601 80.832C141.897 80.528 141.289 80.096 140.777 79.536C140.281 78.96 139.897 78.28 139.625 77.496C139.353 76.696 139.217 75.808 139.217 74.832C139.217 73.84 139.353 72.944 139.625 72.144C139.913 71.344 140.305 70.664 140.801 70.104C141.297 69.528 141.889 69.088 142.577 68.784C143.281 68.48 144.057 68.328 144.905 68.328C145.737 68.328 146.489 68.48 147.161 68.784C147.849 69.088 148.433 69.512 148.913 70.056C149.393 70.584 149.761 71.216 150.017 71.952C150.273 72.688 150.401 73.496 150.401 74.376V75.288H141.233V75.864C141.233 76.408 141.321 76.912 141.497 77.376C141.673 77.84 141.921 78.24 142.241 78.576C142.577 78.912 142.977 79.176 143.441 79.368C143.921 79.544 144.449 79.632 145.025 79.632C145.857 79.632 146.577 79.44 147.185 79.056C147.793 78.672 148.257 78.144 148.577 77.472L149.993 78.432C149.625 79.264 149.009 79.952 148.145 80.496C147.297 81.024 146.257 81.288 145.025 81.288ZM144.905 69.912C144.377 69.912 143.889 70.008 143.441 70.2C142.993 70.392 142.601 70.656 142.265 70.992C141.945 71.328 141.689 71.728 141.497 72.192C141.321 72.64 141.233 73.136 141.233 73.68V73.848H148.337V73.584C148.337 73.04 148.249 72.544 148.073 72.096C147.913 71.648 147.681 71.264 147.377 70.944C147.089 70.608 146.729 70.352 146.297 70.176C145.881 70 145.417 69.912 144.905 69.912ZM153.92 79.368H158.24V64.872H153.92V63.24H160.16V79.368H164.48V81H153.92V79.368ZM173.591 81.288C172.727 81.288 171.943 81.136 171.239 80.832C170.551 80.528 169.959 80.096 169.463 79.536C168.983 78.96 168.615 78.28 168.359 77.496C168.103 76.696 167.975 75.8 167.975 74.808C167.975 73.832 168.103 72.944 168.359 72.144C168.615 71.344 168.983 70.664 169.463 70.104C169.959 69.528 170.551 69.088 171.239 68.784C171.943 68.48 172.727 68.328 173.591 68.328C174.455 68.328 175.231 68.48 175.919 68.784C176.623 69.088 177.215 69.528 177.695 70.104C178.191 70.664 178.567 71.344 178.823 72.144C179.079 72.944 179.207 73.832 179.207 74.808C179.207 75.8 179.079 76.696 178.823 77.496C178.567 78.28 178.191 78.96 177.695 79.536C177.215 80.096 176.623 80.528 175.919 80.832C175.231 81.136 174.455 81.288 173.591 81.288ZM173.591 79.632C174.663 79.632 175.527 79.312 176.183 78.672C176.839 78.032 177.167 77.04 177.167 75.696V73.92C177.167 72.576 176.839 71.584 176.183 70.944C175.527 70.304 174.663 69.984 173.591 69.984C172.519 69.984 171.655 70.304 170.999 70.944C170.343 71.584 170.015 72.576 170.015 73.92V75.696C170.015 77.04 170.343 78.032 170.999 78.672C171.655 79.312 172.519 79.632 173.591 79.632ZM183.061 68.616H184.981V70.632H185.077C185.877 69.096 187.149 68.328 188.893 68.328C190.413 68.328 191.597 68.896 192.445 70.032C193.309 71.168 193.741 72.76 193.741 74.808C193.741 76.856 193.309 78.448 192.445 79.584C191.597 80.72 190.413 81.288 188.893 81.288C187.149 81.288 185.877 80.52 185.077 78.984H184.981V85.8H183.061V68.616ZM188.149 79.584C189.269 79.584 190.133 79.248 190.741 78.576C191.365 77.888 191.677 76.984 191.677 75.864V73.752C191.677 72.632 191.365 71.736 190.741 71.064C190.133 70.376 189.269 70.032 188.149 70.032C187.717 70.032 187.309 70.088 186.925 70.2C186.541 70.312 186.205 70.48 185.917 70.704C185.629 70.912 185.397 71.176 185.221 71.496C185.061 71.8 184.981 72.16 184.981 72.576V77.04C184.981 77.456 185.061 77.824 185.221 78.144C185.397 78.448 185.629 78.712 185.917 78.936C186.205 79.144 186.541 79.304 186.925 79.416C187.309 79.528 187.717 79.584 188.149 79.584ZM202.588 81.288C201.692 81.288 200.884 81.136 200.164 80.832C199.46 80.528 198.852 80.096 198.34 79.536C197.844 78.96 197.46 78.28 197.188 77.496C196.916 76.696 196.78 75.808 196.78 74.832C196.78 73.84 196.916 72.944 197.188 72.144C197.476 71.344 197.868 70.664 198.364 70.104C198.86 69.528 199.452 69.088 200.14 68.784C200.844 68.48 201.62 68.328 202.468 68.328C203.3 68.328 204.052 68.48 204.724 68.784C205.412 69.088 205.996 69.512 206.476 70.056C206.956 70.584 207.324 71.216 207.58 71.952C207.836 72.688 207.964 73.496 207.964 74.376V75.288H198.796V75.864C198.796 76.408 198.884 76.912 199.06 77.376C199.236 77.84 199.484 78.24 199.804 78.576C200.14 78.912 200.54 79.176 201.004 79.368C201.484 79.544 202.012 79.632 202.588 79.632C203.42 79.632 204.14 79.44 204.748 79.056C205.356 78.672 205.82 78.144 206.14 77.472L207.556 78.432C207.188 79.264 206.572 79.952 205.708 80.496C204.86 81.024 203.82 81.288 202.588 81.288ZM202.468 69.912C201.94 69.912 201.452 70.008 201.004 70.2C200.556 70.392 200.164 70.656 199.828 70.992C199.508 71.328 199.252 71.728 199.06 72.192C198.884 72.64 198.796 73.136 198.796 73.68V73.848H205.9V73.584C205.9 73.04 205.812 72.544 205.636 72.096C205.476 71.648 205.244 71.264 204.94 70.944C204.652 70.608 204.292 70.352 203.86 70.176C203.444 70 202.98 69.912 202.468 69.912ZM210.859 81V68.616H212.635V70.056H212.73C212.923 69.576 213.195 69.168 213.547 68.832C213.899 68.496 214.419 68.328 215.107 68.328C215.827 68.328 216.363 68.512 216.715 68.88C217.067 69.232 217.283 69.696 217.363 70.272H217.435C217.659 69.712 217.979 69.248 218.395 68.88C218.811 68.512 219.387 68.328 220.123 68.328C221.131 68.328 221.803 68.68 222.139 69.384C222.491 70.088 222.667 71.096 222.667 72.408V81H220.891V72.72C220.891 71.664 220.779 70.936 220.555 70.536C220.347 70.12 219.955 69.912 219.379 69.912C218.867 69.912 218.451 70.08 218.131 70.416C217.811 70.736 217.651 71.232 217.651 71.904V81H215.875V72.72C215.875 71.664 215.763 70.936 215.539 70.536C215.331 70.12 214.947 69.912 214.387 69.912C213.875 69.912 213.451 70.08 213.115 70.416C212.795 70.736 212.635 71.232 212.635 71.904V81H210.859ZM231.369 81.288C230.473 81.288 229.665 81.136 228.945 80.832C228.241 80.528 227.633 80.096 227.121 79.536C226.625 78.96 226.241 78.28 225.969 77.496C225.697 76.696 225.561 75.808 225.561 74.832C225.561 73.84 225.697 72.944 225.969 72.144C226.257 71.344 226.649 70.664 227.145 70.104C227.641 69.528 228.233 69.088 228.921 68.784C229.625 68.48 230.401 68.328 231.249 68.328C232.081 68.328 232.833 68.48 233.505 68.784C234.193 69.088 234.777 69.512 235.257 70.056C235.737 70.584 236.105 71.216 236.361 71.952C236.617 72.688 236.745 73.496 236.745 74.376V75.288H227.577V75.864C227.577 76.408 227.665 76.912 227.841 77.376C228.017 77.84 228.265 78.24 228.585 78.576C228.921 78.912 229.321 79.176 229.785 79.368C230.265 79.544 230.793 79.632 231.369 79.632C232.201 79.632 232.921 79.44 233.529 79.056C234.137 78.672 234.601 78.144 234.921 77.472L236.337 78.432C235.969 79.264 235.353 79.952 234.489 80.496C233.641 81.024 232.601 81.288 231.369 81.288ZM231.249 69.912C230.721 69.912 230.233 70.008 229.785 70.2C229.337 70.392 228.945 70.656 228.609 70.992C228.289 71.328 228.033 71.728 227.841 72.192C227.665 72.64 227.577 73.136 227.577 73.68V73.848H234.681V73.584C234.681 73.04 234.593 72.544 234.417 72.096C234.257 71.648 234.025 71.264 233.721 70.944C233.433 70.608 233.073 70.352 232.641 70.176C232.225 70 231.761 69.912 231.249 69.912ZM240.696 81V68.616H242.616V70.632H242.712C242.84 70.328 243 70.04 243.192 69.768C243.384 69.48 243.616 69.232 243.888 69.024C244.176 68.816 244.512 68.648 244.896 68.52C245.28 68.392 245.728 68.328 246.24 68.328C247.536 68.328 248.576 68.744 249.36 69.576C250.144 70.392 250.536 71.552 250.536 73.056V81H248.616V73.392C248.616 72.256 248.368 71.416 247.872 70.872C247.376 70.312 246.648 70.032 245.688 70.032C245.304 70.032 244.928 70.08 244.56 70.176C244.192 70.272 243.864 70.416 243.576 70.608C243.288 70.8 243.056 71.048 242.88 71.352C242.704 71.656 242.616 72.008 242.616 72.408V81H240.696ZM260.534 81C259.59 81 258.894 80.736 258.446 80.208C258.014 79.68 257.798 79 257.798 78.168V70.248H253.67V68.616H256.742C257.158 68.616 257.446 68.536 257.606 68.376C257.782 68.2 257.87 67.904 257.87 67.488V64.248H259.718V68.616H265.358V70.248H259.718V79.368H265.358V81H260.534Z" fill="#292F36"/>
<path d="M77.4291 106.928H73.0771V112H71.7331V100.832H73.0771V105.76H77.4291V100.832H78.7731V112H77.4291V106.928ZM85.5189 102V112H84.1749V102H80.4469V100.832H89.2469V102H85.5189ZM96.9206 106.4V102.864H96.7926L94.4406 108.608L92.0886 102.864H91.9606V106.4V112H90.7286V100.832H92.4566L94.4246 105.76H94.5206L96.4886 100.832H98.1526V112H96.9206V106.4ZM101.154 112V100.832H102.498V110.832H107.794V112H101.154ZM113.628 108.24C113.191 108.24 112.881 108.149 112.7 107.968C112.529 107.787 112.444 107.557 112.444 107.28V106.992C112.444 106.715 112.529 106.485 112.7 106.304C112.881 106.123 113.191 106.032 113.628 106.032C114.065 106.032 114.369 106.123 114.54 106.304C114.721 106.485 114.812 106.715 114.812 106.992V107.28C114.812 107.557 114.721 107.787 114.54 107.968C114.369 108.149 114.065 108.24 113.628 108.24ZM123.59 112.192C122.225 112.192 121.206 111.696 120.534 110.704C119.873 109.712 119.542 108.283 119.542 106.416C119.542 104.549 119.873 103.12 120.534 102.128C121.206 101.136 122.225 100.64 123.59 100.64C124.102 100.64 124.545 100.709 124.918 100.848C125.291 100.987 125.611 101.173 125.878 101.408C126.145 101.643 126.369 101.909 126.55 102.208C126.731 102.496 126.891 102.789 127.03 103.088L125.878 103.616C125.782 103.371 125.67 103.141 125.542 102.928C125.414 102.704 125.259 102.512 125.078 102.352C124.907 102.181 124.699 102.048 124.454 101.952C124.219 101.856 123.931 101.808 123.59 101.808C122.705 101.808 122.043 102.144 121.606 102.816C121.179 103.488 120.966 104.384 120.966 105.504V107.328C120.966 108.448 121.179 109.344 121.606 110.016C122.043 110.688 122.705 111.024 123.59 111.024C123.931 111.024 124.219 110.976 124.454 110.88C124.699 110.784 124.907 110.656 125.078 110.496C125.259 110.325 125.414 110.133 125.542 109.92C125.67 109.696 125.782 109.461 125.878 109.216L127.03 109.744C126.891 110.053 126.731 110.352 126.55 110.64C126.369 110.928 126.145 111.189 125.878 111.424C125.611 111.659 125.291 111.845 124.918 111.984C124.545 112.123 124.102 112.192 123.59 112.192ZM132.784 112.192C131.781 112.192 130.96 112.011 130.32 111.648C129.68 111.275 129.152 110.8 128.736 110.224L129.712 109.424C130.149 109.968 130.608 110.373 131.088 110.64C131.578 110.907 132.16 111.04 132.832 111.04C133.642 111.04 134.261 110.853 134.688 110.48C135.114 110.107 135.328 109.584 135.328 108.912C135.328 108.368 135.173 107.947 134.864 107.648C134.554 107.339 134.016 107.12 133.248 106.992L132 106.784C131.456 106.688 130.997 106.544 130.624 106.352C130.261 106.16 129.968 105.931 129.744 105.664C129.52 105.387 129.36 105.088 129.264 104.768C129.168 104.437 129.12 104.096 129.12 103.744C129.12 102.72 129.456 101.947 130.128 101.424C130.8 100.901 131.706 100.64 132.848 100.64C133.744 100.64 134.496 100.789 135.104 101.088C135.722 101.387 136.218 101.808 136.592 102.352L135.648 103.168C135.338 102.763 134.965 102.432 134.528 102.176C134.09 101.92 133.525 101.792 132.832 101.792C132.074 101.792 131.493 101.952 131.088 102.272C130.682 102.592 130.48 103.072 130.48 103.712C130.48 104.213 130.629 104.624 130.928 104.944C131.237 105.253 131.786 105.477 132.576 105.616L133.776 105.824C134.32 105.92 134.778 106.064 135.152 106.256C135.525 106.448 135.824 106.677 136.048 106.944C136.282 107.211 136.448 107.509 136.544 107.84C136.64 108.171 136.688 108.517 136.688 108.88C136.688 109.915 136.346 110.725 135.664 111.312C134.992 111.899 134.032 112.192 132.784 112.192ZM142.377 112.192C141.375 112.192 140.553 112.011 139.913 111.648C139.273 111.275 138.745 110.8 138.329 110.224L139.305 109.424C139.743 109.968 140.201 110.373 140.681 110.64C141.172 110.907 141.753 111.04 142.425 111.04C143.236 111.04 143.855 110.853 144.281 110.48C144.708 110.107 144.921 109.584 144.921 108.912C144.921 108.368 144.767 107.947 144.457 107.648C144.148 107.339 143.609 107.12 142.841 106.992L141.593 106.784C141.049 106.688 140.591 106.544 140.217 106.352C139.855 106.16 139.561 105.931 139.337 105.664C139.113 105.387 138.953 105.088 138.857 104.768C138.761 104.437 138.713 104.096 138.713 103.744C138.713 102.72 139.049 101.947 139.721 101.424C140.393 100.901 141.3 100.64 142.441 100.64C143.337 100.64 144.089 100.789 144.697 101.088C145.316 101.387 145.812 101.808 146.185 102.352L145.241 103.168C144.932 102.763 144.559 102.432 144.121 102.176C143.684 101.92 143.119 101.792 142.425 101.792C141.668 101.792 141.087 101.952 140.681 102.272C140.276 102.592 140.073 103.072 140.073 103.712C140.073 104.213 140.223 104.624 140.521 104.944C140.831 105.253 141.38 105.477 142.169 105.616L143.369 105.824C143.913 105.92 144.372 106.064 144.745 106.256C145.119 106.448 145.417 106.677 145.641 106.944C145.876 107.211 146.041 107.509 146.137 107.84C146.233 108.171 146.281 108.517 146.281 108.88C146.281 109.915 145.94 110.725 145.257 111.312C144.585 111.899 143.625 112.192 142.377 112.192ZM152.003 108.24C151.566 108.24 151.256 108.149 151.075 107.968C150.904 107.787 150.819 107.557 150.819 107.28V106.992C150.819 106.715 150.904 106.485 151.075 106.304C151.256 106.123 151.566 106.032 152.003 106.032C152.44 106.032 152.744 106.123 152.915 106.304C153.096 106.485 153.187 106.715 153.187 106.992V107.28C153.187 107.557 153.096 107.787 152.915 107.968C152.744 108.149 152.44 108.24 152.003 108.24ZM164.477 100.832V109.104C164.477 109.573 164.397 110 164.237 110.384C164.077 110.768 163.848 111.093 163.549 111.36C163.261 111.627 162.914 111.835 162.509 111.984C162.104 112.123 161.661 112.192 161.181 112.192C160.328 112.192 159.624 111.973 159.069 111.536C158.514 111.088 158.152 110.464 157.981 109.664L159.261 109.392C159.314 109.616 159.384 109.829 159.469 110.032C159.565 110.224 159.688 110.395 159.837 110.544C159.997 110.683 160.189 110.795 160.413 110.88C160.637 110.965 160.904 111.008 161.213 111.008C161.821 111.008 162.29 110.837 162.621 110.496C162.962 110.144 163.133 109.6 163.133 108.864V102H159.101V100.832H164.477ZM171.159 112.192C170.156 112.192 169.335 112.011 168.695 111.648C168.055 111.275 167.527 110.8 167.111 110.224L168.087 109.424C168.524 109.968 168.983 110.373 169.463 110.64C169.953 110.907 170.535 111.04 171.207 111.04C172.017 111.04 172.636 110.853 173.063 110.48C173.489 110.107 173.703 109.584 173.703 108.912C173.703 108.368 173.548 107.947 173.239 107.648C172.929 107.339 172.391 107.12 171.623 106.992L170.375 106.784C169.831 106.688 169.372 106.544 168.999 106.352C168.636 106.16 168.343 105.931 168.119 105.664C167.895 105.387 167.735 105.088 167.639 104.768C167.543 104.437 167.495 104.096 167.495 103.744C167.495 102.72 167.831 101.947 168.503 101.424C169.175 100.901 170.081 100.64 171.223 100.64C172.119 100.64 172.871 100.789 173.479 101.088C174.097 101.387 174.593 101.808 174.967 102.352L174.023 103.168C173.713 102.763 173.34 102.432 172.903 102.176C172.465 101.92 171.9 101.792 171.207 101.792C170.449 101.792 169.868 101.952 169.463 102.272C169.057 102.592 168.855 103.072 168.855 103.712C168.855 104.213 169.004 104.624 169.303 104.944C169.612 105.253 170.161 105.477 170.951 105.616L172.151 105.824C172.695 105.92 173.153 106.064 173.527 106.256C173.9 106.448 174.199 106.677 174.423 106.944C174.657 107.211 174.823 107.509 174.919 107.84C175.015 108.171 175.063 108.517 175.063 108.88C175.063 109.915 174.721 110.725 174.039 111.312C173.367 111.899 172.407 112.192 171.159 112.192ZM180.784 108.24C180.347 108.24 180.038 108.149 179.856 107.968C179.686 107.787 179.6 107.557 179.6 107.28V106.992C179.6 106.715 179.686 106.485 179.856 106.304C180.038 106.123 180.347 106.032 180.784 106.032C181.222 106.032 181.526 106.123 181.696 106.304C181.878 106.485 181.968 106.715 181.968 106.992V107.28C181.968 107.557 181.878 107.787 181.696 107.968C181.526 108.149 181.222 108.24 180.784 108.24ZM188.362 112H187.018V100.832H191.082C192.117 100.832 192.906 101.115 193.45 101.68C193.994 102.245 194.266 103.035 194.266 104.048C194.266 104.955 194.031 105.68 193.562 106.224C193.093 106.768 192.41 107.083 191.514 107.168L194.362 112H192.858L190.138 107.232H188.362V112ZM191.05 106.096C191.615 106.096 192.053 105.957 192.362 105.68C192.682 105.392 192.842 104.987 192.842 104.464V103.632C192.842 103.109 192.682 102.709 192.362 102.432C192.053 102.144 191.615 102 191.05 102H188.362V106.096H191.05ZM196.612 112V100.832H203.492V102H197.956V105.76H203.3V106.928H197.956V110.832H203.492V112H196.612ZM212.462 112L211.518 108.816H207.598L206.654 112H205.262L208.686 100.832H210.462L213.886 112H212.462ZM209.63 102.256H209.486L207.918 107.648H211.198L209.63 102.256ZM219.527 112.192C218.162 112.192 217.143 111.696 216.471 110.704C215.81 109.712 215.479 108.283 215.479 106.416C215.479 104.549 215.81 103.12 216.471 102.128C217.143 101.136 218.162 100.64 219.527 100.64C220.039 100.64 220.482 100.709 220.855 100.848C221.229 100.987 221.549 101.173 221.815 101.408C222.082 101.643 222.306 101.909 222.487 102.208C222.669 102.496 222.829 102.789 222.967 103.088L221.815 103.616C221.719 103.371 221.607 103.141 221.479 102.928C221.351 102.704 221.197 102.512 221.015 102.352C220.845 102.181 220.637 102.048 220.391 101.952C220.157 101.856 219.869 101.808 219.527 101.808C218.642 101.808 217.981 102.144 217.543 102.816C217.117 103.488 216.903 104.384 216.903 105.504V107.328C216.903 108.448 217.117 109.344 217.543 110.016C217.981 110.688 218.642 111.024 219.527 111.024C219.869 111.024 220.157 110.976 220.391 110.88C220.637 110.784 220.845 110.656 221.015 110.496C221.197 110.325 221.351 110.133 221.479 109.92C221.607 109.696 221.719 109.461 221.815 109.216L222.967 109.744C222.829 110.053 222.669 110.352 222.487 110.64C222.306 110.928 222.082 111.189 221.815 111.424C221.549 111.659 221.229 111.845 220.855 111.984C220.482 112.123 220.039 112.192 219.527 112.192ZM229.425 102V112H228.081V102H224.353V100.832H233.153V102H229.425Z" fill="#43454D"/>
<defs>
<clipPath id="clip0_536_773">
<rect width="32" height="32" fill="white" transform="translate(136 16)"/>
</clipPath>
</defs>
</svg>
